<?xml version="1.0" encoding="utf-8"?>
<!-- Generator: Adobe Illustrator 24.1.2, SVG Export Plug-In . SVG Version: 6.00 Build 0)  -->
<svg version="1.1" id="Layer_1" xmlns="http://www.w3.org/2000/svg" xmlns:xlink="http://www.w3.org/1999/xlink" x="0px" y="0px"
	 viewBox="0 0 194.87 84.42" style="enable-background:new 0 0 194.87 84.42;" xml:space="preserve">
<style type="text/css">
	.st0{fill:#088CC7;}
	.st1{fill:#054059;}
	.st2{fill:url(#SVGID_1_);}
	.st3{fill:#C5D82D;}
</style>
<g>
	<g>
		<path class="st0" d="M67.63,21.11l7.1-0.02l1.53,11.44l-8.59,0.03L67.63,21.11z M73.19,56.69l-5.44,0.02l-0.08-22.8l8.77-0.03
			l0.58,4.25l0.31,0l0.51-4.26l8.81-0.03l0.08,22.8l-5.44,0.02l0.15-21.05l-0.35,0l-2.25,21.06l-3.2,0.01l-2.4-21.04l-0.35,0
			L73.19,56.69z M86.62,21.04l0.04,11.44l-8.64,0.03l1.5-11.45L86.62,21.04z"/>
		<path class="st0" d="M89.69,21.03l6.1-0.02l0.04,11.44l-6.1,0.02L89.69,21.03z M95.91,56.61l-6.1,0.02l-0.08-22.63l6.1-0.02
			L95.91,56.61z"/>
		<path class="st0" d="M112.69,27.84l0.02,4.56l-6.05,0.02l-0.02-5.44c0-0.99-0.34-1.49-1.01-1.49c-0.32,0-0.55,0.11-0.68,0.33
			s-0.2,0.61-0.19,1.16l0.02,5.44l-6.14,0.02l-0.02-4.56c-0.01-3.07,0.39-5.01,1.21-5.84c0.84-0.85,2.79-1.28,5.83-1.29
			c2.98-0.01,4.9,0.38,5.75,1.16C112.25,22.71,112.68,24.68,112.69,27.84z M101.41,38.53c-0.88-0.52-1.54-1.12-1.98-1.79
			c-0.44-0.67-0.71-1.62-0.8-2.85l6.4-0.02c0.09,0.18,0.23,0.34,0.42,0.48c0.19,0.15,0.42,0.29,0.68,0.44l3.73,2.14
			c1.03,0.58,1.76,1.27,2.2,2.05c0.44,0.79,0.66,1.9,0.67,3.33l0.03,7.41c0.01,3.19-0.41,5.16-1.25,5.92
			c-0.82,0.73-2.74,1.11-5.78,1.12c-2.98,0.01-4.9-0.36-5.75-1.12c-0.85-0.84-1.28-2.8-1.29-5.87l-0.03-7.85l6.14-0.02l0.03,8.68
			c0,1.02,0.34,1.53,1.01,1.53c0.58,0,0.88-0.51,0.87-1.54l-0.03-7.54c0-0.64-0.09-1.1-0.27-1.36c-0.18-0.26-0.54-0.55-1.1-0.87
			L101.41,38.53z"/>
		<path class="st0" d="M129.39,27.78l0.02,4.56l-6.05,0.02l-0.02-5.44c0-0.99-0.34-1.49-1.01-1.49c-0.32,0-0.55,0.11-0.68,0.33
			s-0.2,0.61-0.19,1.16l0.02,5.44l-6.14,0.02l-0.02-4.56c-0.01-3.07,0.39-5.01,1.21-5.84c0.84-0.85,2.79-1.28,5.83-1.29
			c2.98-0.01,4.9,0.38,5.75,1.16C128.95,22.65,129.38,24.62,129.39,27.78z M118.12,38.47c-0.88-0.52-1.54-1.12-1.98-1.79
			c-0.44-0.67-0.71-1.62-0.8-2.85l6.4-0.02c0.09,0.18,0.23,0.34,0.42,0.48c0.19,0.15,0.42,0.29,0.68,0.44l3.73,2.14
			c1.03,0.58,1.76,1.27,2.2,2.05c0.44,0.79,0.66,1.9,0.67,3.33l0.03,7.41c0.01,3.19-0.41,5.16-1.25,5.92
			c-0.82,0.73-2.74,1.11-5.78,1.12c-2.98,0.01-4.9-0.36-5.75-1.12c-0.85-0.84-1.28-2.8-1.29-5.87l-0.03-7.85l6.14-0.02l0.03,8.68
			c0,1.02,0.34,1.53,1.01,1.53c0.58,0,0.88-0.51,0.87-1.54l-0.03-7.54c0-0.64-0.09-1.1-0.27-1.36c-0.18-0.26-0.54-0.55-1.1-0.87
			L118.12,38.47z"/>
		<path class="st0" d="M132.27,20.88l6.1-0.02l0.04,11.44l-6.1,0.02L132.27,20.88z M138.48,56.47l-6.1,0.02l-0.08-22.63l6.1-0.02
			L138.48,56.47z"/>
		<path class="st0" d="M147.33,26.88l0.02,5.39l-6.05,0.02l-0.02-4.56c-0.01-3.16,0.39-5.13,1.21-5.92c0.82-0.79,2.74-1.19,5.78-1.2
			c3.07-0.01,5.01,0.39,5.84,1.21c0.82,0.82,1.24,2.77,1.25,5.87l0.01,4.56l-6.09,0.02l-0.02-5.39c0-1.02-0.34-1.53-1.01-1.53
			C147.63,25.35,147.32,25.86,147.33,26.88z M142.6,55.49c-0.82-0.82-1.24-2.79-1.25-5.92l-0.05-15.74l6.05-0.02l0.06,16.62
			c0,0.99,0.34,1.49,1.01,1.49c0.35,0,0.59-0.11,0.72-0.33c0.13-0.22,0.2-0.61,0.19-1.16l-0.06-16.62l6.09-0.02l0.05,15.74
			c0.01,3.1-0.41,5.07-1.25,5.92c-0.85,0.76-2.74,1.15-5.7,1.16C145.41,56.62,143.45,56.25,142.6,55.49z"/>
		<path class="st0" d="M158.18,20.8l5.44-0.02l2.19,11.44l-7.59,0.03L158.18,20.8z M163.61,56.38l-5.31,0.02l-0.08-22.71l7.85-0.03
			l0.94,4.86l0.26,0l-0.06-4.87l5.22-0.02l0.08,22.71l-5.39,0.02l-3.44-18.23l-0.26,0L163.61,56.38z M172.39,20.75l0.04,11.44
			l-5.22,0.02l-0.08-11.44L172.39,20.75z"/>
		<path class="st0" d="M175.86,26.47l5.09-0.02l0.02,5.7l-5.09,0.02L175.86,26.47z M175.94,44.92l5.09-0.02l0.02,5.7l-5.09,0.02
			L175.94,44.92z"/>
	</g>
	<g>
		<path class="st1" d="M71.09,68.34c-0.46,0-0.89-0.09-1.28-0.26c-0.4-0.17-0.74-0.41-1.04-0.71s-0.53-0.65-0.7-1.06
			s-0.25-0.83-0.25-1.29c0-0.46,0.08-0.89,0.25-1.29c0.17-0.4,0.4-0.75,0.69-1.05c0.29-0.3,0.64-0.54,1.04-0.71
			c0.4-0.17,0.83-0.26,1.29-0.26c0.46,0,0.89,0.09,1.28,0.26c0.4,0.17,0.74,0.41,1.04,0.71c0.3,0.3,0.53,0.65,0.7,1.05
			c0.17,0.4,0.25,0.83,0.25,1.29c0,0.46-0.08,0.89-0.25,1.29s-0.4,0.76-0.7,1.06s-0.64,0.54-1.04,0.71
			C71.98,68.26,71.55,68.34,71.09,68.34z M71.09,67.22c0.31,0,0.59-0.06,0.84-0.18c0.25-0.12,0.47-0.28,0.64-0.49
			s0.31-0.44,0.41-0.71s0.14-0.55,0.14-0.85c0-0.3-0.05-0.59-0.14-0.85c-0.09-0.27-0.23-0.5-0.41-0.7c-0.18-0.2-0.39-0.36-0.64-0.48
			c-0.25-0.12-0.53-0.17-0.84-0.17c-0.32,0-0.6,0.06-0.85,0.17c-0.25,0.12-0.46,0.28-0.64,0.48c-0.18,0.2-0.31,0.44-0.41,0.7
			c-0.09,0.27-0.14,0.55-0.14,0.85c0,0.3,0.05,0.58,0.14,0.85c0.09,0.27,0.23,0.51,0.41,0.71c0.18,0.2,0.39,0.37,0.64,0.49
			C70.5,67.16,70.78,67.22,71.09,67.22z"/>
		<path class="st1" d="M76.67,61.87h2.02c0.44,0,0.8,0.07,1.08,0.2s0.5,0.3,0.67,0.5s0.28,0.41,0.34,0.64
			c0.06,0.23,0.09,0.43,0.09,0.62c0,0.35-0.06,0.65-0.19,0.91C80.56,65,80.4,65.2,80.2,65.36c-0.2,0.16-0.43,0.28-0.68,0.35
			c-0.25,0.08-0.5,0.11-0.75,0.11h-0.95v2.34h-1.14V61.87z M78.68,64.83c0.3,0,0.54-0.09,0.72-0.26c0.18-0.18,0.27-0.41,0.27-0.69
			c0-0.3-0.09-0.54-0.28-0.72c-0.19-0.19-0.42-0.28-0.71-0.28h-0.86v1.95H78.68z"/>
		<path class="st1" d="M83.17,61.87h4.08v1.05h-2.89v1.48h2.12v1.06h-2.12v1.64h3.11v1.07h-4.3V61.87z"/>
		<path class="st1" d="M89.76,61.87h1.2l3.05,4.48v-4.48h1.16v6.3H94l-3.08-4.53v4.53h-1.16V61.87z"/>
		<path class="st1" d="M102.47,61.87h1.23l2.39,6.3h-1.32l-0.55-1.6h-2.34l-0.55,1.6h-1.25L102.47,61.87z M103.88,65.59l-0.83-2.45
			l-0.84,2.45H103.88z"/>
		<path class="st1" d="M108.07,61.87h2.09c0.4,0,0.73,0.06,1.01,0.18c0.28,0.12,0.5,0.27,0.67,0.46c0.17,0.19,0.29,0.39,0.37,0.61
			c0.08,0.22,0.12,0.43,0.12,0.63c0,0.4-0.09,0.75-0.26,1.05c-0.17,0.31-0.44,0.55-0.8,0.73l1.46,2.63h-1.34l-1.27-2.48h-0.9v2.48
			h-1.14V61.87z M110.16,64.71c0.3,0,0.54-0.09,0.7-0.26c0.17-0.18,0.25-0.39,0.25-0.64c0-0.27-0.09-0.49-0.26-0.66
			c-0.18-0.17-0.41-0.25-0.69-0.25h-0.95v1.82H110.16z"/>
		<path class="st1" d="M120.28,67.02c-0.09,0.15-0.22,0.29-0.39,0.44c-0.17,0.15-0.36,0.29-0.59,0.42
			c-0.23,0.13-0.47,0.23-0.75,0.32c-0.27,0.08-0.56,0.12-0.86,0.12c-0.47,0-0.9-0.08-1.29-0.25c-0.39-0.16-0.73-0.39-1.01-0.69
			c-0.28-0.29-0.5-0.64-0.66-1.03c-0.16-0.4-0.24-0.83-0.24-1.3c0-0.46,0.08-0.89,0.24-1.29c0.16-0.4,0.38-0.76,0.67-1.06
			c0.29-0.3,0.63-0.54,1.02-0.72s0.83-0.26,1.31-0.26c0.31,0,0.59,0.03,0.85,0.1c0.26,0.07,0.49,0.16,0.7,0.27s0.4,0.25,0.56,0.4
			c0.16,0.15,0.31,0.32,0.43,0.5l-0.84,0.75c-0.2-0.29-0.44-0.52-0.7-0.7s-0.6-0.26-1.01-0.26c-0.31,0-0.58,0.06-0.83,0.18
			c-0.25,0.12-0.46,0.29-0.63,0.49s-0.31,0.44-0.4,0.72c-0.09,0.27-0.14,0.56-0.14,0.86c0,0.3,0.04,0.59,0.14,0.85
			c0.09,0.26,0.22,0.49,0.39,0.69c0.17,0.2,0.37,0.35,0.61,0.46s0.5,0.17,0.8,0.17c0.27,0,0.5-0.03,0.69-0.09
			c0.19-0.06,0.36-0.14,0.49-0.24c0.13-0.09,0.25-0.19,0.34-0.3c0.09-0.1,0.17-0.19,0.25-0.27L120.28,67.02z"/>
		<path class="st1" d="M122.38,61.87h1.19v2.53h3.12v-2.53h1.19v6.3h-1.19v-2.71h-3.12v2.71h-1.19V61.87z"/>
		<path class="st1" d="M130.44,61.87h1.19v6.3h-1.19V61.87z"/>
		<path class="st1" d="M135.87,62.92h-2.13v-1.05h5.46v1.05h-2.13v5.25h-1.19V62.92z"/>
		<path class="st1" d="M141.3,61.87h4.08v1.05h-2.89v1.48h2.12v1.06h-2.12v1.64h3.11v1.07h-4.3V61.87z"/>
		<path class="st1" d="M153.05,67.02c-0.09,0.15-0.22,0.29-0.39,0.44c-0.17,0.15-0.36,0.29-0.59,0.42
			c-0.23,0.13-0.47,0.23-0.75,0.32c-0.27,0.08-0.56,0.12-0.86,0.12c-0.47,0-0.9-0.08-1.29-0.25c-0.39-0.16-0.73-0.39-1.01-0.69
			c-0.28-0.29-0.5-0.64-0.66-1.03c-0.16-0.4-0.24-0.83-0.24-1.3c0-0.46,0.08-0.89,0.24-1.29c0.16-0.4,0.38-0.76,0.67-1.06
			c0.29-0.3,0.63-0.54,1.02-0.72s0.83-0.26,1.31-0.26c0.31,0,0.59,0.03,0.85,0.1c0.26,0.07,0.49,0.16,0.7,0.27s0.4,0.25,0.56,0.4
			c0.16,0.15,0.31,0.32,0.43,0.5l-0.84,0.75c-0.2-0.29-0.44-0.52-0.7-0.7s-0.6-0.26-1.01-0.26c-0.31,0-0.58,0.06-0.83,0.18
			c-0.25,0.12-0.46,0.29-0.63,0.49s-0.31,0.44-0.4,0.72c-0.09,0.27-0.14,0.56-0.14,0.86c0,0.3,0.04,0.59,0.14,0.85
			c0.09,0.26,0.22,0.49,0.39,0.69c0.17,0.2,0.37,0.35,0.61,0.46s0.5,0.17,0.8,0.17c0.27,0,0.5-0.03,0.69-0.09
			c0.19-0.06,0.36-0.14,0.49-0.24c0.13-0.09,0.25-0.19,0.34-0.3c0.09-0.1,0.17-0.19,0.25-0.27L153.05,67.02z"/>
		<path class="st1" d="M156.85,62.92h-2.13v-1.05h5.46v1.05h-2.13v5.25h-1.19V62.92z"/>
	</g>
	<g>
		<radialGradient id="SVGID_1_" cx="34.4312" cy="38.4892" r="22.3533" gradientUnits="userSpaceOnUse">
			<stop  offset="0" style="stop-color:#C5D82D"/>
			<stop  offset="1" style="stop-color:#87BD3E"/>
		</radialGradient>
		<path class="st2" d="M55.26,25.99L44.7,19.94c0,0,0,0,0,0s0,0,0,0l-8.68-4.97c-0.34-0.19-0.77-0.08-0.96,0.26
			c-0.19,0.34-0.08,0.77,0.26,0.96l8.07,4.62l-1.67,2.93l9.14,5.22c0.11,0.06,0.23,0.09,0.35,0.09c0.24,0,0.48-0.13,0.61-0.35
			c0.19-0.34,0.08-0.77-0.26-0.96l-7.92-4.52l0.97-1.7l9.24,5.29l0.08,22.47l-9.18,5.34l-0.96-1.69l7.84-4.56
			c0.34-0.2,0.45-0.63,0.25-0.96c-0.2-0.34-0.63-0.45-0.96-0.25l-9.05,5.26l1.66,2.92l-9.02,5.25L15.68,49.79l1.94-1.13L23.46,52
			c0.11,0.06,0.23,0.09,0.35,0.09c0.24,0,0.48-0.13,0.61-0.35c0.19-0.34,0.08-0.77-0.26-0.96l-6.07-3.48
			c-0.22-0.18-0.54-0.23-0.8-0.07l-2.28,1.33l-0.07-21.62l18.63-10.84c0.34-0.2,0.45-0.63,0.25-0.96c-0.2-0.34-0.63-0.45-0.96-0.25
			L13.52,26.13l0.08,23.59c-0.01,0.06-0.01,0.13,0,0.19l0,0.31L34.51,62.2l20.83-12.12L55.26,25.99z M41.14,21.76l-6.77-3.88
			l-17.13,9.97c-0.34,0.2-0.45,0.63-0.25,0.96c0.13,0.22,0.37,0.35,0.61,0.35c0.12,0,0.24-0.03,0.35-0.1l16.42-9.56l6.07,3.48
			c0.34,0.19,0.77,0.08,0.96-0.26C41.59,22.39,41.47,21.96,41.14,21.76z M47.51,30.9c0.11,0.06,0.23,0.09,0.35,0.09
			c0.24,0,0.48-0.13,0.61-0.35c0.19-0.34,0.08-0.77-0.26-0.96l-13.84-7.93l-7.01,4.08c0,0,0,0,0,0s0,0,0,0l-4.62,2.69
			c-0.34,0.2-0.45,0.63-0.25,0.96c0.19,0.34,0.63,0.45,0.96,0.25l4.01-2.33l1.69,2.91l4.54-2.64l0.01,2.26l-6.71,3.9l0.03,8.57
			l3.13,1.79l-1.67,2.93l5.29,3.03l0.01,2.27l-12.43-7.12c-0.34-0.19-0.77-0.08-0.96,0.26c-0.19,0.34-0.08,0.77,0.26,0.96l6.16,3.53
			l-1.67,2.92l9.36,5.34l6.75-3.93c0.34-0.2,0.45-0.63,0.25-0.96c-0.2-0.34-0.63-0.45-0.96-0.25l-6.05,3.52l-7.43-4.24l0.97-1.7
			l6.45,3.7l13.78-8.02c0.34-0.2,0.45-0.63,0.25-0.96c-0.2-0.34-0.63-0.45-0.96-0.25l-12.37,7.2l-0.01-3.08l-4.77-2.73l0.97-1.7
			l3.09,1.77l7.41-4.31l-0.03-8.57l-4.79-2.74c-0.34-0.19-0.77-0.08-0.96,0.26c-0.19,0.34-0.08,0.77,0.26,0.96l4.08,2.34l0.02,6.95
			l-6.01,3.5l-2.99-1.71c0,0,0,0,0,0c0,0,0,0,0,0l-3.03-1.74l-0.02-6.95l5.3-3.09l0.01,2.55c0,0.39,0.32,0.7,0.7,0.7h0
			c0.39,0,0.7-0.32,0.7-0.71l-0.02-6.44l9.05,5.19c0.11,0.06,0.23,0.09,0.35,0.09c0.24,0,0.48-0.13,0.61-0.35
			c0.19-0.34,0.08-0.77-0.26-0.96l-10.46-5.99l-4.73,2.75l-0.98-1.7l5.71-3.32L47.51,30.9z M23.75,43.61
			c-0.19,0.34-0.08,0.77,0.26,0.96l2.98,1.71c0.11,0.06,0.23,0.09,0.35,0.09c0.24,0,0.48-0.13,0.61-0.35
			c0.19-0.34,0.08-0.77-0.26-0.96l-2.98-1.71C24.37,43.16,23.94,43.28,23.75,43.61z M27.9,30.23c-0.2-0.34-0.63-0.45-0.96-0.25
			l-2.97,1.73c-0.34,0.2-0.45,0.63-0.25,0.96c0.13,0.22,0.37,0.35,0.61,0.35c0.12,0,0.24-0.03,0.35-0.1l2.97-1.73
			C27.98,31,28.1,30.57,27.9,30.23z M44.19,43.29l-7.57,4.4c-0.34,0.2-0.45,0.63-0.25,0.96C36.5,48.88,36.73,49,36.98,49
			c0.12,0,0.24-0.03,0.35-0.1l7.57-4.4c0.34-0.2,0.45-0.63,0.25-0.96C44.95,43.2,44.52,43.09,44.19,43.29z"/>
		<polygon class="st3" points="36.15,39.09 36.15,37.18 34.49,36.23 32.84,37.18 32.84,39.09 34.49,40.04 		"/>
		<path class="st0" d="M34.45,42.91l-4.17-2.39l-0.02-4.81l4.16-2.42l4.17,2.39l0.01,2.14c0,0.39-0.31,0.71-0.7,0.71c0,0,0,0,0,0
			c-0.39,0-0.7-0.31-0.7-0.7l0-1.32l-2.76-1.58l-2.75,1.6l0.01,3.18l2.76,1.58l3.45-2.01l3.62,2.07c0.34,0.19,0.45,0.62,0.26,0.96
			c-0.19,0.34-0.62,0.46-0.96,0.26L37.9,40.9L34.45,42.91z"/>
		<path class="st0" d="M47.92,46.53c-0.39,0-0.7-0.31-0.7-0.7l-0.04-12.49c0-0.39,0.31-0.71,0.7-0.71c0,0,0,0,0,0
			c0.39,0,0.7,0.31,0.7,0.7l0.04,12.49C48.62,46.21,48.31,46.53,47.92,46.53C47.92,46.53,47.92,46.53,47.92,46.53z"/>
		<path class="st0" d="M51.27,48.45c-0.39,0-0.7-0.31-0.7-0.7L50.5,29.56l-5.3,3.08l0.04,11.25c0,0.39-0.31,0.71-0.7,0.71
			c-0.39,0-0.71-0.31-0.71-0.7L43.8,32.24c0-0.25,0.13-0.48,0.35-0.61l6.7-3.9c0.22-0.13,0.49-0.13,0.7,0
			c0.22,0.12,0.35,0.36,0.35,0.61l0.07,19.41C51.98,48.14,51.66,48.45,51.27,48.45C51.27,48.45,51.27,48.45,51.27,48.45z"/>
		<path class="st0" d="M20.99,44.03c-0.39,0-0.7-0.31-0.7-0.7l-0.04-12.9c0-0.39,0.31-0.71,0.7-0.71c0,0,0,0,0,0
			c0.39,0,0.7,0.31,0.7,0.7l0.04,12.9C21.7,43.72,21.38,44.03,20.99,44.03C20.99,44.03,20.99,44.03,20.99,44.03z"/>
		<path class="st0" d="M17.66,48.57c-0.39,0-0.7-0.31-0.7-0.7l-0.07-19.4c0-0.25,0.13-0.48,0.35-0.61c0.22-0.13,0.49-0.13,0.7,0
			l6.73,3.85c0.22,0.12,0.35,0.36,0.35,0.61l0.05,11.64c0,0.39-0.31,0.71-0.7,0.71c0,0,0,0,0,0c-0.39,0-0.7-0.31-0.7-0.7
			l-0.04-11.24l-5.32-3.05l0.07,18.18C18.36,48.25,18.05,48.57,17.66,48.57C17.66,48.57,17.66,48.57,17.66,48.57z"/>
	</g>
</g>
</svg>
